<?xml version="1.0" standalone="no"?>
<!DOCTYPE svg PUBLIC "-//W3C//DTD SVG 20010904//EN"
 "http://www.w3.org/TR/2001/REC-SVG-20010904/DTD/svg10.dtd">
<svg version="1.0" xmlns="http://www.w3.org/2000/svg"
 width="32.000000pt" height="32.000000pt" viewBox="0 0 32.000000 32.000000"
 preserveAspectRatio="xMidYMid meet">

<g transform="translate(0.000000,32.000000) scale(0.100000,-0.100000)"
fill="#ffffff" stroke="none">
<path d="M159 297 c0 -1 -2 -15 -3 -30 -2 -31 8 -42 77 -82 l47 -27 0 35 c0
32 -5 38 -60 70 -33 20 -60 35 -61 34z"/>
<path d="M72 254 l-42 -26 0 -68 0 -68 44 -26 c25 -14 48 -26 53 -26 4 0 8 54
8 120 0 74 -4 120 -10 120 -5 -1 -29 -12 -53 -26z"/>
<path d="M156 170 c0 -17 9 -36 19 -44 18 -13 18 -14 -1 -24 -19 -11 -28 -72
-10 -72 5 0 33 14 62 31 73 42 73 64 -2 107 -31 18 -59 32 -62 32 -4 0 -7 -14
-6 -30z"/>
</g>
</svg>
